<svg width="24" height="24" viewBox="0 0 24 24" fill="none" xmlns="http://www.w3.org/2000/svg">
<g clip-path="url(#clip0_938_34803)">
<path d="M18 9.06395C18.0002 8.66171 17.9207 8.26342 17.7662 7.89202C17.6118 7.52062 17.3854 7.18346 17.1 6.89995C16.5161 6.3428 15.7401 6.03195 14.933 6.03195C14.1259 6.03195 13.3499 6.3428 12.766 6.89995L0.900009 18.7689C0.358428 19.3497 0.0634503 20.118 0.0772451 20.9119C0.09104 21.7059 0.412529 22.4635 0.973957 23.025C1.53539 23.5866 2.2929 23.9082 3.08685 23.9222C3.88079 23.9362 4.64916 23.6414 5.23001 23.1L17.1 11.231C17.3858 10.9472 17.6125 10.6095 17.767 10.2376C17.9215 9.8656 18.0007 9.46671 18 9.06395ZM3.81601 21.688C3.61386 21.8806 3.34529 21.9881 3.06601 21.9881C2.78673 21.9881 2.51816 21.8806 2.31601 21.688C2.11742 21.4889 2.0059 21.2191 2.0059 20.938C2.0059 20.6568 2.11742 20.387 2.31601 20.188L10.085 12.418L11.59 13.923L3.81601 21.688ZM15.688 9.81595L13 12.505L11.5 11L14.189 8.31195C14.2849 8.20245 14.4022 8.11379 14.5337 8.05148C14.6652 7.98916 14.8081 7.95452 14.9536 7.94969C15.099 7.94486 15.2439 7.96995 15.3793 8.02341C15.5147 8.07686 15.6376 8.15755 15.7405 8.26045C15.8434 8.36336 15.9241 8.4863 15.9776 8.62166C16.031 8.75702 16.0561 8.90192 16.0513 9.04737C16.0464 9.19283 16.0118 9.33574 15.9495 9.46725C15.8872 9.59877 15.7985 9.71609 15.689 9.81195L15.688 9.81595ZM4.86301 2.85495L6.41301 2.41295L6.85501 0.862951C6.92621 0.614236 7.07647 0.395468 7.28305 0.239731C7.48963 0.0839937 7.7413 -0.000244141 8.00001 -0.000244141C8.25872 -0.000244141 8.51039 0.0839937 8.71697 0.239731C8.92355 0.395468 9.0738 0.614236 9.14501 0.862951L9.58701 2.41295L11.137 2.85495C11.3857 2.92616 11.6045 3.07641 11.7602 3.28299C11.916 3.48957 12.0002 3.74124 12.0002 3.99995C12.0002 4.25866 11.916 4.51033 11.7602 4.71691C11.6045 4.92349 11.3857 5.07375 11.137 5.14495L9.58701 5.58695L9.14501 7.13695C9.0738 7.38567 8.92355 7.60443 8.71697 7.76017C8.51039 7.91591 8.25872 8.00015 8.00001 8.00015C7.7413 8.00015 7.48963 7.91591 7.28305 7.76017C7.07647 7.60443 6.92621 7.38567 6.85501 7.13695L6.41301 5.58695L4.86301 5.14495C4.61429 5.07375 4.39553 4.92349 4.23979 4.71691C4.08405 4.51033 3.99981 4.25866 3.99981 3.99995C3.99981 3.74124 4.08405 3.48957 4.23979 3.28299C4.39553 3.07641 4.61429 2.92616 4.86301 2.85495ZM23.137 17.145L21.587 17.587L21.145 19.1369C21.0738 19.3857 20.9236 19.6044 20.717 19.7602C20.5104 19.9159 20.2587 20.0001 20 20.0001C19.7413 20.0001 19.4896 19.9159 19.283 19.7602C19.0765 19.6044 18.9262 19.3857 18.855 19.1369L18.413 17.587L16.863 17.145C16.6143 17.0737 16.3955 16.9235 16.2398 16.7169C16.0841 16.5103 15.9998 16.2587 15.9998 16C15.9998 15.7412 16.0841 15.4896 16.2398 15.283C16.3955 15.0764 16.6143 14.9262 16.863 14.855L18.413 14.413L18.855 12.863C18.9262 12.6142 19.0765 12.3955 19.283 12.2397C19.4896 12.084 19.7413 11.9998 20 11.9998C20.2587 11.9998 20.5104 12.084 20.717 12.2397C20.9236 12.3955 21.0738 12.6142 21.145 12.863L21.587 14.413L23.137 14.855C23.3857 14.9262 23.6045 15.0764 23.7602 15.283C23.916 15.4896 24.0002 15.7412 24.0002 16C24.0002 16.2587 23.916 16.5103 23.7602 16.7169C23.6045 16.9235 23.3857 17.0737 23.137 17.145ZM17.755 2.49995L19.111 2.11295L19.5 0.754951C19.5633 0.538768 19.695 0.348923 19.8753 0.213864C20.0555 0.0788049 20.2747 0.00580595 20.5 0.00580595C20.7253 0.00580595 20.9445 0.0788049 21.1248 0.213864C21.305 0.348923 21.4367 0.538768 21.5 0.754951L21.887 2.11095L23.243 2.49795C23.4592 2.56126 23.649 2.69292 23.7841 2.87321C23.9192 3.05349 23.9922 3.27269 23.9922 3.49795C23.9922 3.72321 23.9192 3.94241 23.7841 4.12269C23.649 4.30298 23.4592 4.43464 23.243 4.49795L21.887 4.88495L21.5 6.24395C21.4367 6.46013 21.305 6.64998 21.1248 6.78504C20.9445 6.9201 20.7253 6.9931 20.5 6.9931C20.2747 6.9931 20.0555 6.9201 19.8753 6.78504C19.695 6.64998 19.5633 6.46013 19.5 6.24395L19.113 4.88895L17.755 4.49995C17.5388 4.43664 17.349 4.30498 17.2139 4.12469C17.0789 3.94441 17.0059 3.72521 17.0059 3.49995C17.0059 3.27469 17.0789 3.05549 17.2139 2.87521C17.349 2.69492 17.5388 2.56326 17.755 2.49995Z" fill="#A9A9A9"/>
</g>
<defs>
<clipPath id="clip0_938_34803">
<rect width="24" height="24" fill="white"/>
</clipPath>
</defs>
</svg>
